<svg xmlns="http://www.w3.org/2000/svg" xmlns:xlink="http://www.w3.org/1999/xlink" width="50" height="50" viewBox="0 0 50 50">
  <defs>
    <clipPath id="clip-theme50">
      <rect width="50" height="50"/>
    </clipPath>
  </defs>
  <g id="theme50" clip-path="url(#clip-theme50)">
    <g id="Subtraction_1" data-name="Subtraction 1" transform="translate(173.75 130)" fill="none" stroke-linejoin="round">
      <path d="M-145-90a14.9,14.9,0,0,1-10.607-4.393A14.9,14.9,0,0,1-160-105a14.9,14.9,0,0,1,4.393-10.606A14.9,14.9,0,0,1-145-120a15,15,0,0,1,7.5,2.007A15.055,15.055,0,0,0-145-105a15.056,15.056,0,0,0,7.5,12.993A15,15,0,0,1-145-90Z" stroke="none"/>
      <path d="M -145.4890441894531 -94.01060485839844 C -147.7324829101562 -97.17769622802734 -148.9999084472656 -101.0093078613281 -148.9999084472656 -105.0003051757812 C -148.9999084472656 -108.9906158447266 -147.7322235107422 -112.8223342895508 -145.4892272949219 -115.9890823364258 C -148.2437896728516 -115.8692855834961 -150.8164520263672 -114.7397232055664 -152.7783660888672 -112.7778778076172 C -154.8560028076172 -110.700325012207 -156.0001983642578 -107.9381942749023 -156.0001983642578 -105.0003051757812 C -156.0001983642578 -102.0619964599609 -154.8559722900391 -99.299560546875 -152.7783355712891 -97.22188568115234 C -150.8162994384766 -95.25987243652344 -148.2438201904297 -94.13027954101562 -145.4890441894531 -94.01060485839844 M -144.9999084472656 -90 C -149.0066680908203 -90 -152.7735748291016 -91.56029510498047 -155.6067504882812 -94.39345550537109 C -158.4399108886719 -97.22664642333984 -160.0001983642578 -100.9935684204102 -160.0001983642578 -105.0003051757812 C -160.0001983642578 -109.0066680908203 -158.4399108886719 -112.7733001708984 -155.6067504882812 -115.6063537597656 C -152.7735443115234 -118.4394454956055 -149.0066223144531 -119.9996948242188 -144.9999084472656 -119.9996948242188 C -142.3630523681641 -119.9996948242188 -139.7695465087891 -119.3057556152344 -137.4997406005859 -117.9929046630859 C -142.1260223388672 -115.3171005249023 -144.9999084472656 -110.3392868041992 -144.9999084472656 -105.0003051757812 C -144.9999084472656 -99.66150665283203 -142.1260223388672 -94.68268585205078 -137.4997406005859 -92.00682067871094 C -139.7705535888672 -90.69334411621094 -142.3640594482422 -90 -144.9999084472656 -90 Z" stroke="none" fill="#fff"/>
    </g>
  </g>
</svg>
